#!OML:ASF H:\Terrain\Patient Classification 1\Walking\steve\steve.ASF
:FULLY-SPECIFIED
:DEGREES
170
root 9.62028 16.4344 10.0074 6.90248 -6.14618 3.40009
lowerback 0.920228 1.74229 -5.60868
upperback -2.45382 2.16196 -0.839214
thorax -3.2272 1.20516 2.18956
lowerneck -10.2211 -1.50426 -2.42464
upperneck 13.3276 -2.25057 4.03795
head 5.78121 -0.918495 1.49049
rclavicle -3.99899e-015 1.32937e-014
rhumerus -50.3746 -12.0484 -77.3141
rradius 28.4566
rwrist -1.89987
rhand -20.455 -40.9617
rfingers 7.12502
rthumb 5.90058 -70.8595
lclavicle -3.99899e-015 1.32937e-014
lhumerus -27.191 -4.02398 87.2103
lradius 28.2787
lwrist 2.14198
lhand -19.8437 -14.2283
lfingers 7.12502
lthumb 6.49069 15.6522
rfemur -36.5769 1.92004 19.3774
rtibia 59.4191
rfoot -18.4337 -0.380398
rtoes -12.7599
lfemur -12.3818 3.31957 -29.4778
ltibia 28.7046
lfoot -17.5512 -7.12667
ltoes 0.693888
171
root 9.61324 16.4376 10.2464 6.95533 -5.63472 3.51512
lowerback 0.995999 1.5978 -5.85646
upperback -2.41598 1.96078 -0.773498
thorax -3.22665 1.11121 2.40289
lowerneck -10.2977 -1.54363 -2.45839
upperneck 13.313 -2.30636 4.10195
head 5.79281 -0.941759 1.51132
rclavicle -1.79916e-015 -1.49958e-014
rhumerus -51.3834 -12.7699 -75.8876
rradius 27.2398
rwrist -0.60048
rhand -19.7561 -37.534
rfingers 7.12502
rthumb 6.57527 -67.4119
lclavicle -1.79916e-015 -1.49958e-014
lhumerus -26.1181 -5.52234 87.662
lradius 29.9125
lwrist 4.47295
lhand -21.3113 -14.7539
lfingers 7.12502
lthumb 5.07381 15.1653
rfemur -37.3977 1.65633 19.4657
rtibia 56.9059
rfoot -19.1094 -1.18504
rtoes -16.7567
lfemur -11.0925 3.46896 -29.5789
ltibia 27.8785
lfoot -16.9686 -7.80371
ltoes 4.00763
172
root 9.60935 16.4435 10.4829 7.05261 -5.08061 3.89651
lowerback 1.07669 1.47259 -6.24697
upperback -2.45544 1.77444 -0.821315
thorax -3.31014 1.03035 2.5766
lowerneck -9.99675 -1.58593 -2.61309
upperneck 13.0198 -2.36694 4.32545
head 5.65594 -0.968407 1.60324
rclavicle -1.1013e-014 8.56769e-015
rhumerus -52.5338 -14.0394 -74.0497
rradius 26.2444
rwrist 1.34697
rhand -19.2821 -36.9612
rfingers 7.12502
rthumb 7.0328 -66.8244
lclavicle -1.1013e-014 8.56769e-015
lhumerus -25.1643 -7.07093 88.0476
lradius 31.5363
lwrist 6.88639
lhand -22.7954 -15.3314
lfingers 7.12502
lthumb 3.64067 14.6173
rfemur -38.2776 1.1966 19.2966
rtibia 54.2935
rfoot -19.1721 -2.54226
rtoes -19.774
lfemur -9.74524 3.38005 -29.971
ltibia 26.8098
lfoot -16.5976 -7.86956
ltoes 2.42223
173
root 9.5973 16.4462 10.7284 7.10916 -4.44169 4.07346
lowerback 1.04595 1.31181 -6.50208
upperback -2.42113 1.55743 -0.807419
thorax -3.24597 0.926327 2.74454
lowerneck -9.49708 -1.57208 -2.78877
upperneck 12.4746 -2.35283 4.62261
head 5.40553 -0.959648 1.72782
rclavicle -3.58356e-014 6.83943e-015
rhumerus -53.4888 -16.0767 -71.4917
rradius 24.6362
rwrist 4.18404
rhand -18.8366 -36.6935
rfingers 7.12502
rthumb 7.46287 -66.5418
lclavicle -3.58356e-014 6.83943e-015
lhumerus -24.244 -8.63329 88.2981
lradius 33.4235
lwrist 9.65713
lhand -23.0968 -14.8786
lfingers 7.12502
lthumb 3.34963 15.0749
rfemur -38.9309 0.892236 19.2719
rtibia 51.5801
rfoot -19.6639 -3.02406
rtoes -19.5367
lfemur -8.21341 3.29244 -30.0639
ltibia 25.601
lfoot -16.2174 -8.21829
ltoes 2.09828
174
root 9.57676 16.4455 10.9829 7.0571 -3.83588 4.15473
lowerback 0.903488 1.15507 -6.77248
upperback -2.23595 1.36262 -0.758739
thorax -2.96317 0.82386 2.96027
lowerneck -9.24336 -1.57197 -2.96945
upperneck 11.9575 -2.36083 4.98539
head 5.20842 -0.954991 1.87041
rclavicle 1.24512e-015 5.03174e-015
rhumerus -54.3717 -18.5232 -68.5276
rradius 22.8896
rwrist 7.66874
rhand -18.3585 -36.1517
rfingers 7.12502
rthumb 7.92437 -65.9831
lclavicle 1.24512e-015 5.03174e-015
lhumerus -23.1706 -9.99586 88.3741
lradius 35.3121
lwrist 12.2669
lhand -23.5228 -14.734
lfingers 7.12502
lthumb 2.9382 15.2255
rfemur -39.2805 0.738399 19.2353
rtibia 48.7253
rfoot -20.4673 -1.83634
rtoes -15.2076
lfemur -6.4782 3.22621 -29.9726
ltibia 24.3838
lfoot -15.8747 -8.98537
ltoes 4.1136
175
root 9.56146 16.4488 11.2296 7.22135 -3.41374 4.05487
lowerback 0.862016 1.05078 -6.81169
upperback -2.31109 1.22466 -0.687665
thorax -3.00654 0.760127 3.06109
lowerneck -9.11261 -1.57978 -2.71034
upperneck 11.9369 -2.39335 4.85662
head 5.17688 -0.969744 1.78577
rclavicle -1.50669e-014 -1.17407e-015
rhumerus -55.7155 -20.2992 -65.7977
rradius 21.6888
rwrist 10.706
rhand -17.8606 -35.1734
rfingers 7.12502
rthumb 8.40487 -64.9862
lclavicle -1.50669e-014 -1.17407e-015
lhumerus -22.4793 -11.0289 88.3908
lradius 37.2187
lwrist 14.4379
lhand -24.0552 -14.8811
lfingers 7.12502
lthumb 2.42404 15.0849
rfemur -39.7904 0.73877 19.3276
rtibia 45.7249
rfoot -20.5476 -0.484236
rtoes -11.1939
lfemur -4.98958 3.16937 -29.722
ltibia 23.1077
lfoot -15.6776 -9.25693
ltoes 2.63996
